<svg xmlns="http://www.w3.org/2000/svg" viewBox="0 0 800 1000" preserveAspectRatio="xMidYMid slice">
  <defs>
    <radialGradient id="mp-glow" cx="50%" cy="42%" r="45%">
      <stop offset="0%" stop-color="#1f6bff" stop-opacity="0.85"/>
      <stop offset="60%" stop-color="#0a1430" stop-opacity="0.6"/>
      <stop offset="100%" stop-color="#03050a" stop-opacity="1"/>
    </radialGradient>
    <filter id="mp-blur"><feGaussianBlur stdDeviation="2.5"/></filter>
    <filter id="mp-noise">
      <feTurbulence type="fractalNoise" baseFrequency="0.95" numOctaves="2"/>
      <feColorMatrix values="0 0 0 0 1  0 0 0 0 1  0 0 0 0 1  0 0 0 0.16 0"/>
    </filter>
  </defs>

  <rect width="800" height="1000" fill="#03050a"/>
  <rect width="800" height="1000" fill="url(#mp-glow)"/>

  <!-- silhouette of head & shoulders, futurist hood -->
  <g transform="translate(400 500)" fill="#0a0e18" stroke="#1f6bff" stroke-width="2" opacity="0.95">
    <!-- shoulders -->
    <path d="M -260 360 Q -200 200 -120 160 L 120 160 Q 200 200 260 360 Z"/>
    <!-- neck -->
    <rect x="-50" y="80" width="100" height="100" rx="14"/>
    <!-- hooded head -->
    <path d="M -160 80 Q -190 -80 -120 -180 Q -60 -260 0 -270 Q 60 -260 120 -180 Q 190 -80 160 80 Q 130 110 90 95 L -90 95 Q -130 110 -160 80 Z" fill="#070b14"/>
    <!-- visor -->
    <path d="M -110 -40 Q -10 -90 110 -40 L 105 5 Q 0 -25 -105 5 Z" fill="#1f6bff" opacity="0.55"/>
    <!-- visor reflection lines -->
    <line x1="-90" y1="-25" x2="90" y2="-15" stroke="#e7f1ff" stroke-width="1"/>
    <line x1="-80" y1="-5" x2="60" y2="0" stroke="#e7f1ff" stroke-width="0.8" opacity="0.7"/>
  </g>

  <!-- coordinates label -->
  <g font-family="ui-monospace, Menlo, monospace" fill="#1f6bff" opacity="0.85">
    <text x="40" y="60" font-size="14" letter-spacing="4">SUBJ_333</text>
    <text x="40" y="84" font-size="11" letter-spacing="3" opacity="0.6">LAT -3.732 / LON -38.527</text>
    <text x="760" y="60" text-anchor="end" font-size="14" letter-spacing="4">XTRANHO</text>
    <text x="760" y="84" text-anchor="end" font-size="11" letter-spacing="3" opacity="0.6">SINAL ESTÁVEL</text>
  </g>

  <!-- corner brackets -->
  <g stroke="#1f6bff" stroke-width="2" fill="none" opacity="0.9">
    <path d="M 40 130 L 40 100 L 70 100"/>
    <path d="M 760 130 L 760 100 L 730 100"/>
    <path d="M 40 870 L 40 900 L 70 900"/>
    <path d="M 760 870 L 760 900 L 730 900"/>
  </g>

  <!-- scan line -->
  <rect x="0" y="540" width="800" height="2" fill="#1f6bff" opacity="0.5"/>

  <!-- noise -->
  <rect width="800" height="1000" filter="url(#mp-noise)" opacity="0.6" style="mix-blend-mode:screen"/>
</svg>
