<svg version="1.0" preserveAspectRatio="xMidYMid meet" height="508" viewBox="0 0 654 380.999991" zoomAndPan="magnify" width="872" xmlns:xlink="http://www.w3.org/1999/xlink" xmlns="http://www.w3.org/2000/svg"><rect fill-opacity="1" height="457.199989" y="-38.099999" fill="#ffffff" width="784.8" x="-65.4"></rect><rect fill-opacity="1" height="457.199989" y="-38.099999" fill="#ffffff" width="784.8" x="-65.4"></rect><path fill-rule="evenodd" fill-opacity="1" d="M 625.125 20.597656 C 579.089844 39.394531 526.457031 57.257812 436.125 84.753906 C 399.640625 95.859375 355.808594 109.636719 342.390625 114.214844 C 337.386719 115.925781 337.257812 116.027344 339.390625 116.609375 C 340.621094 116.941406 354.449219 117.292969 370.125 117.390625 C 385.800781 117.488281 400.3125 117.796875 402.375 118.085938 C 413.09375 119.566406 417 121.28125 417 124.503906 C 417 126.925781 412.976562 130.722656 404.097656 136.679688 C 380.449219 152.539062 360.316406 159.988281 335.25 162.148438 C 307.300781 164.558594 275.730469 155.425781 246.375 136.445312 C 236.90625 130.324219 232.164062 125.070312 233.828125 122.550781 C 234.835938 121.03125 237.753906 119.929688 243.960938 118.730469 C 248.855469 117.785156 256.320312 117.507812 280.171875 117.386719 C 300.128906 117.28125 310.707031 116.957031 311.671875 116.414062 C 312.855469 115.75 312.917969 115.53125 312 115.21875 C 308.039062 113.867188 269.53125 101.648438 262.125 99.394531 C 257.175781 97.886719 251.269531 96.027344 249 95.261719 C 246.730469 94.492188 242.34375 93.140625 239.25 92.25 C 236.15625 91.359375 228.898438 89.15625 223.125 87.355469 C 217.351562 85.550781 203.679688 81.339844 192.75 77.992188 C 173.085938 71.976562 165.949219 69.753906 160.125 67.835938 C 158.476562 67.289062 149.023438 64.25 139.125 61.078125 C 112.496094 52.550781 76.625 40.308594 63.375 35.226562 C 61.3125 34.4375 57.261719 32.902344 54.375 31.820312 C 51.488281 30.738281 42.78125 27.3125 35.027344 24.210938 C 27.269531 21.109375 20.742188 18.757812 20.515625 18.984375 C 20.289062 19.210938 21.402344 20.066406 22.988281 20.886719 C 24.578125 21.707031 28.070312 23.589844 30.75 25.074219 C 38.878906 29.566406 57.28125 38.796875 68.515625 44.015625 C 106.40625 61.609375 112.484375 64.488281 125.902344 71.195312 C 156.988281 86.726562 171.574219 95.824219 180.855469 105.476562 C 186.03125 110.863281 188.03125 114.042969 192.21875 123.558594 C 197.636719 135.871094 203.136719 142.507812 213.578125 149.34375 C 224.277344 156.351562 231.304688 159.148438 267 170.625 C 283.667969 175.980469 292.660156 180.25 296.855469 184.804688 C 305.824219 194.539062 295.773438 202.472656 260.625 213.390625 C 227.359375 223.730469 215.96875 229.042969 205.25 239.21875 C 198.644531 245.492188 197.855469 246.777344 187.257812 268.46875 C 185.117188 272.855469 175.824219 282.140625 168.75 286.964844 C 155.597656 295.9375 128.820312 309.96875 93.75 326.269531 C 53.773438 344.855469 18.15625 362.65625 19.085938 363.585938 C 19.265625 363.765625 26.265625 361.195312 34.644531 357.875 C 81.601562 339.257812 121.539062 325.828125 216.75 296.636719 C 255.4375 284.773438 305.988281 268.859375 310.859375 267.007812 C 312.011719 266.566406 312.714844 265.964844 312.417969 265.667969 C 312.121094 265.367188 297.476562 264.929688 279.875 264.695312 C 252.855469 264.332031 247.023438 264.058594 242.398438 262.9375 C 235.550781 261.28125 232.832031 259.199219 233.882812 256.433594 C 235.917969 251.085938 258.464844 236.792969 276.75 229.261719 C 285.132812 225.8125 297.09375 222.417969 306.277344 220.882812 C 314.859375 219.453125 333.4375 219.242188 342 220.476562 C 362.292969 223.410156 384.464844 232.242188 404.019531 245.1875 C 416.488281 253.441406 419.5625 257.785156 415.035156 260.753906 C 410.644531 263.628906 404.972656 264.144531 374.25 264.46875 C 344.257812 264.785156 337.542969 265.117188 338.722656 266.238281 C 339.640625 267.109375 384.183594 281.382812 420.375 292.402344 C 506.28125 318.558594 563.871094 337.464844 596.625 350.273438 C 603.816406 353.082031 628.46875 363.015625 631.4375 364.296875 C 632.105469 364.585938 632.300781 364.441406 631.972656 363.90625 C 630.683594 361.824219 600.023438 345.664062 580.5 336.777344 C 546.109375 321.125 535.085938 315.9375 519 307.828125 C 498.511719 297.503906 489.488281 292.292969 479.839844 285.214844 C 469.621094 277.71875 466.117188 273.320312 459.171875 259.292969 C 452.296875 245.402344 447.890625 239.867188 438.617188 233.476562 C 428.285156 226.355469 418.644531 222.328125 392.019531 214.023438 C 372.664062 207.984375 363.125 204.207031 357.558594 200.375 C 353.945312 197.890625 351 193.433594 351 190.457031 C 351 188.679688 353.523438 184.738281 355.769531 183 C 362.0625 178.132812 377.125 172.148438 400.125 165.382812 C 415.390625 160.890625 429.320312 154.972656 437.25 149.609375 C 445.667969 143.914062 453.703125 134.761719 457.320312 126.75 L 461.105469 118.355469 C 467.859375 103.371094 481.832031 92.875 521.625 72.886719 C 533.789062 66.777344 539.585938 64.042969 583.125 43.886719 C 596.449219 37.71875 629.199219 20.855469 631.4375 19.007812 C 631.609375 18.867188 631.609375 18.613281 631.4375 18.449219 C 631.265625 18.285156 628.425781 19.25 625.125 20.597656" fill="#000000"></path></svg>