<?xml version="1.0" encoding="UTF-8"?>
<svg id="Camada_2" data-name="Camada 2" xmlns="http://www.w3.org/2000/svg" viewBox="0 0 1292.82 430.94">
  <defs>
    <style>
      .cls-1 {
        fill: #fff;
      }
    </style>
  </defs>
  <g id="Camada_1-2" data-name="Camada 1">
    <path class="cls-1" d="M1041.14,220.17l23.87-6.61c3.91-38.07,14.07-83.44,47.89-105.86,6.41-4.25,8.28-5.99,14.03-10.69,38.72-31.64,86.35-24.72,107.08,22.41s17.44,141.6-9.28,185.74c-25.77,42.57-83.27,56.6-123.91,25.78-24.57-18.63-36.3-47.57-37.19-78.04l-8.63,4.45c-.37.58-.09,1.58.07,2.27,2.19,9.46,10.03,25.8,14.05,35.41,4.78,11.42,12.04,24.4,15.97,35.65,2.26,6.48.3,10.09-5.68,13.19-9.77,5.06-26.38,4.88-33.56-4.52-10.79-23.24-21.58-46.51-30.63-70.5-24.99,6.52-50.25,12.04-75.99,14.93-6.5,11.2-11.13,23.69-17.08,35.27-2.45,4.77-9.57,19.02-13.11,21.78-6.68,5.21-21.86,4.5-29.23.86-6.95-3.43-5.87-6.86-3.5-13.2,3.1-8.26,10.58-15.75,9.81-24.72-.85.08-1.57-.39-2.23.45-2.1,2.65-4.7,10.36-6.92,14.03-4.85,8.05-9.84,12.93-18.01,17.62-32.92,18.92-70.78,11.9-102.71-5.21-1.89,7.38-5.3,11.35-13.17,12.27-7.12.84-23.21-.8-21.21-11.01l7.88-24.91c-1.03-6.96-11.73-8.4-10.09-15.8,1.43-6.44,15.9-9.37,16.84-11.59,3.54-20.3,6.76-40.69,8.48-61.25.65-7.76-2.14-11.82,5.08-17.45s17.76-6.74,26.22-4.36c4.48,1.26,8.93,3.72,9.39,8.8-1.16,27.03-3.72,54.58-9.76,80.97-.81,3.54-4.81,13.96-4.7,16.37.07,1.54,4.39,4.56,5.85,5.72,15.42,12.19,39.05,25.73,57.65,11.93,6.05-4.49,7.57-11.04,12.14-16.21,3.99-4.51,7.59-5.44,9.27-12.54,4.97-20.98,3.19-46.13-1.78-66.92-6.64-27.76-31.34-76.56-51.88-96.43-1.9-1.84-21.17-17.83-22.56-16.34l5.1,49.06c-1.69,14.2-25.61,16.05-35.66,11.62-5.85-2.58-5.15-5.85-5.81-11.63-2.66-23.04-3.01-46.45-8.79-69.04,2.61-14.1,23.61-11.88,34.42-10.33,61.84,8.9,102.19,66.56,121.53,121.33,11.47,32.48,13.69,66.08,1.27,98.67,2.11-3.28,9.26-12.61,10.04-15.81.48-1.96-1.16-4.83-1.31-7.08-.74-10.76,1.03-25.36,12.38-29.77,1.77-.69,6.46-1.06,7.31-2.32l24.81-70.23c.92-2.26,3.98-.55,5.7-1.57,2.55-1.5,15.39-49.92,16.95-56.47,3.03-12.73,4.45-29.01,7.98-40.72,4.99-16.58,42.68-16.81,45.57-.15,6.6,38.02,3.57,79.36,12.06,117.31,1.88,8.4,5.55,17.01,7.68,25.4ZM1106.58,217.29c-2.25,31.18-.12,69.72,21.84,94.09,15.48,17.18,34.62,17.26,49.82-.34,28.3-32.75,26.47-109.03,22.17-150.07-1.8-17.22-6.34-57.99-31.47-53.97-15.84,2.53-23.49,27.55-25.79,41.09-2.81,16.54-2.54,33.96,1.25,50.29l5.92-19.87c5.19-12.96,25.77-14.93,36.78-9.34,10.15,5.16,3.05,13.42.75,21.39-3.46,11.97-5.05,24.15-6.35,36.54-1.41,13.49,2.76,29.46-12.9,35.07-21.74,7.78-40.66-8.94-51.72-25.77l-10.32-19.12ZM1007.63,231.09l-18.91-60.31c-1.8,9.94-8.72,17.82-10.56,27.64l-3.27.28c-1.96,4.69-16.87,40.28-15.27,41.84l48.02-9.45ZM949.42,175.87h-2.18v1.45h2.18v-1.45Z"/>
    <path class="cls-1" d="M558.01,220.19c.52-43.63-4.55-87.03-9.18-130.33.99-16.16,33.02-18.53,40.35-7.99,34.73,62.34,64.53,127.41,89.62,194.27,1.26.17.69-1.65.72-2.53,1.44-38.88.53-77.93,1.6-116.86,6.13-8.54,16.15-11.56,26.39-10.67,4.38.38,12.84,2.5,13.51,7.58,1.6,12.03-.65,28.41-.8,40.7-.7,59.31-.95,118.82-3.64,178.04-.42,9.23.21,20.07-.71,29.09-.27,2.66-1.03,5.29-2.97,7.2-7.1,6.99-29.45,8.21-36.66,1.16-3.27-3.19-4.03-13.78-5.23-18.76-12.33-51.18-29.33-101.92-49.36-150.54-7.06-17.12-15.13-33.78-22.18-50.89-1.26-.17-.69,1.65-.72,2.53-.72,19.55,1.23,40.38.76,60.35-.53,22.51-1.03,52.82-4.47,74.74-1.06,6.74-3.94,9.26-10.12,11.69-2.47.97-5.96,1.21-7.94,2.24-2.11,1.1-4.36,4.58-7.56,6.26-8.11,4.25-23.09,5.1-30.28-1.27-3.59-3.18-10.72-19.85-13.27-25.26-7.26-15.41-13.75-31.27-20.26-47.01-25.06,7.21-50.66,12.49-76.36,17.1l-25.34,53.18c-4.59,10.04-33.01,12.18-38.71,4.96-1.71-2.16-1.87-4.06-.75-6.59l22.45-48.82c-4.52-14.68-2.98-37.39,16.21-39.16,17.51-45.31,31.51-91.99,41.17-139.67,1.74-8.58,3.55-29.45,7.1-35.78,5.49-9.77,34.09-10.9,40.74-2.1,3.6,4.77,3.79,17.81,4.89,24.18,7.18,41.63,18.9,82.27,32.75,122.08l1.06,1.17c8.73-1.32,18.63-9.06,27.18-4.31ZM472.16,176.59l-24.73,69.76c1.05.76,15.64-2.67,18.2-3.25,2.89-.66,25.27-5.95,25.4-7.26l-18.87-59.24ZM557.29,289.95l.72-38.51c-3.82,4.86-8.11,8.2-13.85,10.59l11.49,27,1.64.92Z"/>
    <path class="cls-1" d="M94.58,301.22c-2.1,12.62-28.34,17.13-37.85,9.46-4.58-3.7-2.82-4.15-2.86-8.7-.43-54.14.59-108.17-2.96-162.08-.78-11.88-3.23-24.67-3.62-36.35-.24-7.17.22-10.65,6.89-14.18,9.78-5.18,34.07-7.59,33.85,8.74,23.25-6.63,47.32-5.69,68.87,5.69,13.65,7.2,32.45,20.96,38.93,35.24,15.48,34.1-21.02,46.67-46.36,54.26-1.03.31-1.29-.45-1.06,1.46,42.02,20.93,80.07,60.07,73.47,110.82-7.81,60.07-77.89,63.15-124.75,52.65-11.35,4.29-23.27,12.07-35.88,8.26-5.22-1.58-13.3-6.89-8.16-12.95,2.58-3.03,19.6-10.59,24.69-13.86,23.92-15.37,38.66-36.41,36.43-66.06-.72-9.52-6-16.33,5.83-21.81,8.27-3.83,28.43-5.6,32.36,4.73,8.61,22.61-2.59,52.9-17.44,70.49-1.04,1.23-9.28,8.42-8.37,9.43,17.68,4.3,35.11.44,46.43-14.29,10.72-13.94,8.36-32.22,3.05-47.85-12.3-36.2-45.15-61.62-81.49-70.84v97.74ZM116.97,124.48c-12.34,1.37-18.21,12.76-20.71,23.64-1.59,6.93-3.65,21.42-2.41,28.11.15.83.25,1.47,1.19,1.71,16.31.09,38,.4,52.15-8.75,25.43-16.43-9.59-47-30.22-44.72Z"/>
    <path class="cls-1" d="M317.2,220.19c14.12-.98,29.25-.74,42.92,3.28,22.21,6.52,10.61,15.02,4.24,29.67-18.22,41.91-19.15,92.36,3.38,132.77,2.07,3.71,10.79,15.33,11.15,17.95.93,6.71-11.46,11.16-16.57,12.22-19.22,3.98-24.3-4.5-32.89-19.52-21.35-37.32-24.38-82.97-12.61-124.03,2.85-9.96,7.35-19.25,10.54-29.07-21.61-.52-42.43,9.13-60.76,19.61-.98,29.3-1.42,58.68-5.27,87.76-6.93,9.09-23.23,11.99-33.42,7.59-6.81-2.94-6.24-7.05-6.04-13.57.65-21.25,3.18-42.68,3.66-63.93.51-22.45-1.14-44.65-1.54-66.89-.31-16.73,39.37-20.76,41.46-5.75.55,3.91-.17,8.56.8,12.65.43.51,8.71-5.26,9.68-5.94,20.3-14.23,39.88-33.46,53.18-54.43,9.98-15.73,23.5-45.1,1.17-57-29.28-15.6-54.05,21.96-62.59,45.06-5.15,13.92-3.42,25.78-20.92,29.25-8.33,1.65-21.92,1.71-25.47-7.59-1.7-16.42-3.8-32.81-6.09-49.15-.88-6.27-5.3-25.01-4.08-29.72,2.75-10.65,33.39-14.82,39.27-4.7,2.48,4.27,2.25,13.26,4.56,17.96,26.88-27.37,79.37-38.26,111.91-15.12,27.88,19.82,18.43,49.32,2.7,73.64-14.12,21.83-33.45,39.53-52.4,57.02Z"/>
    <path class="cls-1" d="M990.72,8.18c4.83-.66,9.33-.27,13.99.91,6.71,1.7,17.93,10.09,23.49,8.92s8.42-6.35,13.94,1.66c7.94,11.52.26,31.82-12.04,37.3-17.58,7.83-28.52-11.04-42.31-8.83-7.64,1.22-16.47,15.48-22.51.34-6.87-17.24,7.66-37.88,25.43-40.29Z"/>
    <path class="cls-1" d="M719.28,128.38c-2.03,2.08-7.88,4.16-10.78,4.85-8.12,1.93-27.24,2.76-28.29-8.57-1.44-15.62,1.09-33.52.1-49.39,1.84-12.94,27.33-15.07,36.71-10.64,1.51.71,2.59,1.64,3.59,2.96l1.14,54.15c-.03,2.12-.97,5.11-2.46,6.63Z"/>
    <rect x="947.25" y="175.87" width="2.18" height="1.45"/>
  </g>
</svg>