<?xml version="1.0" encoding="UTF-8"?>
<svg id="Camada_2" data-name="Camada 2" xmlns="http://www.w3.org/2000/svg" viewBox="0 0 741.27 561.96">
  <defs>
    <style>
      .cls-1 {
        fill: #fff;
      }
    </style>
  </defs>
  <g id="Camada_1-2" data-name="Camada 1">
    <g>
      <path class="cls-1" d="M602.81,558.88c.73-2.86,5.82-1.35,9.12-3.27,2.26-1.31,3.4-3.38,3.93-5.72l12.29-89.07,45.55,76.26,42.22-76.26,12.26,89.1c.51,2.31,1.76,4.41,3.97,5.68,3.32,1.9,8.39.41,9.12,3.27h-37.15c-.33-2.95,4.38-.91,6.04-2.99,3.78-4.72-4.96-53.09-5.2-62.39l-35.46,68.46-37.98-66.88-5.16,56.88c-1.16,6.35,5.22,3.48,6.83,6.92h-30.39Z"/>
      <path class="cls-1" d="M195.03,463.94c30.02,4.59,26.84,46.42-.84,52.13l33.88,37.25,11.7,5.54c-11.62.39-22.01.84-31.96-5.53-15.41-9.86-19.5-34.5-37.25-41.93,20.43-.42,31.01-6.19,28.69-26.46-1.93-16.86-16.88-17.23-32.07-16.34v83.26c0,1.97,8.58,7.05,11.81,5.46v1.54s-38.83,0-38.83,0c1.65-3.13,5.83-.64,9.44-4.53,2.51-2.7,2.16-3.86,2.49-7.05,1.67-16.23,2.11-59.12-.26-74.71-.24-1.59-.73-4.09-1.93-5.17-2.76-2.5-8.98-.24-9.74-3.48,16.61,1.79,39.04-2.42,54.88,0Z"/>
      <path class="cls-1" d="M477.86,463.94c-.16,2.98-4.83.88-7.77,2.95-1.47,1.03-1.98,2.49-2.31,4.09-1.9,9.17-1.11,48.62.39,58.69,5.27,35.38,54.47,33.33,59.95,3.15,3.35-18.44-1.6-42.73.35-61.84-.23-1.58-.92-3.11-2.31-4.09-2.94-2.07-7.61.02-7.77-2.95h30.39c-.16,2.98-4.83.88-7.77,2.95-1.47,1.03-1.98,2.49-2.31,4.09-3.02,14.59,1.52,38.25-.08,54.4-2.72,27.51-21.44,37.1-49.86,35.11-53.74-3.77-30.1-59.64-36.28-89.51-.33-1.6-.85-3.06-2.31-4.09-2.94-2.07-7.61.02-7.77-2.95h35.46Z"/>
      <path class="cls-1" d="M54.88,463.94c31.47,4.88,29.55,58.31-14.8,52.54-1.98-.26-9.2-1.96-9.68-4.28,41.71,2.88,39.77-52.68-3.39-43.59v83.26c0,1.97,8.58,7.05,11.81,5.46v1.54s-38.83,0-38.83,0c.94-2.87,4.98-.98,8.6-3.75,2.44-1.87,2.92-3.49,3.31-6.29,1.97-14.14,1.9-62.23-.25-76.25-.24-1.57-.74-4.13-1.92-5.18-2.31-2.06-7.82-.39-8.06-3.47,16.06,1.76,37.89-2.37,53.19,0Z"/>
      <path class="cls-1" d="M281.99,558.88c.75-2.58,5.31-2.09,8.39-3.94,2.27-1.36,4.19-3.66,5.46-5.86l41.03-88.21,42.7,89.79c1.15,1.96,2.6,3.84,4.76,4.95,3.35,1.72,8.34.57,9.11,3.28h-40.53c.12-2.89,4.57-1.2,6.93-3.73,3.59-3.83-4.79-26.64-12.75-27.49-4.87-.52-29.94-.57-32.23,1.6-.86.82-9.16,19.84-9.25,21.2-.42,6.14,4.64,4.65,6.77,8.42h-30.39ZM349.53,523.08c-4.88-10.43-7.94-23.56-13.46-33.5-.81-1.46-.95-3.7-3.4-3.85l-15.22,37.35h32.08Z"/>
      <path class="cls-1" d="M462.01,54.41C470.25,45.48,522.09-1.31,528.84.03c42.09,24.28,86.44,49.52,112.11,92.4,29.99,50.09,36.07,121.56,20.43,177.34-18.7,66.74-71.59,119.22-124.31,161.02-75.82-21.85-137.73-88.82-146.64-168.51-9.16-81.92,17.12-148.82,71.58-207.87ZM497.63,328.6c12.67,11.42,31.72,23.56,47.31,30.54,6.76,3.02,32.92,13.9,38.17,10.64,46.66-62.41,56.14-156.16,18.75-225.13-25.2-46.48-70.11-74.51-119.15-90.97-5.01.06-18.84,25.05-21.84,30.6-43.04,79.76-31.93,182.43,36.76,244.33Z"/>
      <path class="cls-1" d="M326.41,49.69c9.15,4.68,42.66,17.62,45.89,25.08,1.43,3.31,1.7,20.73,1.34,24.8-3.23,36.64-23.53,63.7-52.63,84.31l-29.87,18.86c55.13,23.06,103.87,49.62,97.5,118.17-7.16,77.05-106.17,107.48-171.23,109.38l-105.77-88.33s36.99-48.32,44.96-46.07l130.75,110.4c2.88-9.34,10.63-15.34,16-24.35,28.76-48.21,22.08-127.94-31.2-156.46-25.19-13.49-53.14-14.05-81.13-14.54-12.5-19.38,12.15-16.37,25.08-19.41,57.12-13.45,95.39-52.06,89.64-113.9-1.12-12.02-6.35-28.3-19.74-31.06-18.52-3.82-28.54,7.1-42.41,16.76-23.05,16.05-44.39,34.84-67.84,50.4-5.03.03-20.34-18.13-22.59-20.63-4.55-5.05-12.25-13.45-13.79-19.39,1.02-3.91,79.65-66.7,94.69-70.77l92.33,46.75Z"/>
    </g>
  </g>
</svg>