<?xml version="1.0" encoding="UTF-8"?>
<svg id="Camada_1" xmlns="http://www.w3.org/2000/svg" version="1.1" viewBox="0 0 1000 1000">
  <!-- Generator: Adobe Illustrator 30.4.0, SVG Export Plug-In . SVG Version: 2.1.4 Build 226)  -->
  <defs>
    <style>
      .st0 {
        fill: #fff;
      }
    </style>
  </defs>
  <path class="st0" d="M263.79,479.17l.48-9.11-.21-9.12,1.15-14.81c.12-1.48.32-3.02-.23-4.09-.73-1.41-2.17-2.39-4.11-2.43l-8.46,16.68-9.7,19.91c-5.21,9.07-9.94,17.83-14.45,27.18l-7.11,12.84-7.76,14.51c-4.43,8.29-9.16,15.89-13.3,24.35-2.41,4.93-5.53,9.15-8.31,13.96l-27.93,48.4c-4.08,7.07-6.58,14-9.31,21.64l-1.77,4.95c-1.75,4.9-5.05,8.88-6.66,13.84-2.23,6.88-4.75,14.08-9.84,19.15-.87,0-2.85.03-3.11.65-.3.72-.17,1.97.03,3.48l-3.98,4.27c-2.57,5.05-6.09,8.97-11.2,11.47l-.14-7.15c-.03-1.63-3.37.5-5-.33-.62-.32-1.3-1.92-1.21-2.63l1.21-9.02c-3.43-4.24-.75-11.4,2.23-16.69,2.31-4.09,2.91-9.05,4.92-13.38,4.46-9.61,8.31-19.03,12.1-28.93l4.05-8.41,6.84-15.44c2.84-6.42,4.48-13.34,7.98-19.46l5.81-10.14,17.24-28.27,5.79-9.69,7.3-11.53c3.56-5.63,5.8-11.51,9-17.35l9.03-16.51,13.06-23.9,9.72-19.44c1.64-3.28,2.93-6.17,4.26-9.47l8.72-21.53c7.96-5.04,3.4-9.24,6.67-12.54,1.96-1.98,3.07-3.91,3.96-6.45,1.51-4.3,3.13-8.4,5.15-12.52l3.86-5.75c1.65-2.46,2.62-5.3,4.45-7.79.63-.86,3.39.82,3.95,1.4l4.54-2.33c.94,1.55.85,3.59,1.53,5.08,1.92,4.21,6.18,7.73,9.72,10.47,3.93,3.05,4.05,6.15,4.4,10.83l1.92,25.55.3,32.29.08,19.03-.35,22.85-1.41,25.08-.43,10.4c-.28,6.64-.18,13.08-.31,19.88-.02.84.53,2.27,1.12,2.63.69.41,2.77.07,3.3-.58l6.67-8.24,7.59-10.07,9.05-13.8,11.06-16.26c5.2-7.65,10.19-15.02,15.85-22.31,1.74-2.24,4.04-3.54,6.4-5.09,3.02-1.98,4.94-5.31,7.15-8.2l15.26-20.05,8.85-14.56c2.75-4.53,5.12-8.97,6.5-13.95,1.29-4.66,4.42-7.06,8.6-8.59l8.31-9.27,4.99-7.75c2.16-3.35,5.86-7.29,6.57-11.23.64-3.51.41-6.04,2.68-9.15l18.75-25.68c3.58-4.91,8.53-8.52,12.59-13.03,1.74-1.93,4.07-2.75,6.5-3.97,4.1-2.06,3.89-10.28,11.6-7.99,3.26-4.97,7.1-11.34,10.25-7.95l-2.93,5.92-1.87,4.96,4.05,3.1,6.44-3.58c.75,1.47,1.27,2.03,3.8,2.83l-2,6.04c-.45,1.34-.39,3.97-.5,5.69-2.8,3.32-4.05,7.35-2.75,11.57l-2.8,3.9-4.03,9.65-2.55,6.64-3.11,9.44-4.32,9.47-3.94,10.4-3.68,10.57-3.08,6.48c-.97,2.05-1.84,3.43-2.56,5.55-2.11,6.19-5.14,11.81-7.71,17.84l-7.68,18-4.92,11.17-4.89,11.55-4.37,8.17-4.38,9.31c-2.25,4.77-4.81,9.49-6.45,14.48-1.33,4.06-3.36,7.09-5.15,10.88l-13.56,28.69-13.69,28.55-5.23,10.73-6.37,14.08-3.96,9.26c-1.08,2.52-1.26,5.16-2.28,7.53l-7.13,16.69c-2.17,5.08-4.66,9.44-4.75,15.17l-4.56,5.69.65,1.97-3.17,8.54c-6-2-7.87,5.16-13.96,3.01l-2.32-6.52-4.71,2,.88-2.95c-1.27-2.06-3.13-3.86-5.25-5.7l.45-9.73-1.69-3.55.99-9.01c.35-3.2,1.03-6.17,3.32-8.61,3.06-3.26,5.14-7.18,4.54-11.99-.2-1.56,1.26-2.67,1.74-3.86l6.14-15.15c3.16-7.8,8.71-14.43,11.57-22.36,1.13-3.12,1.78-5.74,3.44-8.67l8.04-14.19,15.58-30.57,7.93-17.25c.57-1.24,1.07-3.25,1.86-4.11,3.21-3.5,2.15-7.85,3.59-11.69,1.56-4.12,5.05-7.69,6.99-11.66l6.29-12.91-1.88-2.95c-.41-.64-2.58.06-3.16.59-5.4,9.93-11.65,18.73-18.38,27.74l-12.63,18.21-17.48,25.22c-4.62,6.66-8.28,13.42-13.43,19.71-3.67,4.48-6.29,9.6-9.72,14.24l-9.94,13.5c-4.33,5.87-10.32,10.27-16.09,14.58-3.45,2.57-10.45,1.79-13.4-.92-4.02-3.7-8.14-7.29-13-9.71-3.04-1.52-5.52-3.06-6.98-6.33-4.85-10.86-1.61-11.2-2.35-14.56-.99-4.54-.49-8.89-.22-13.53l.65-11.39.56-10.27c.32-5.91,1.35-11.66,1.35-17.53v-12.18s1.26-14.78,1.26-14.78Z"/>
  <path class="st0" d="M507.59,641.99c-2.99.38-5.32-.83-5.93-3.78s-.39-6.09-.17-9.16l.51-7.16,4.07-32.61,1.96-24,3.13-27.69c.18-1.56.22-3.23-.56-4.35-2.5-3.58-13.18,1.82-17.04,7.87-1.19,1.87-1.92,4.15-3.7,5.5l-11.05,8.38-24.68,20.33c-3.32,2.74-7.43,5.37-9.54,9.25l-17.05,31.41-6.96,10.77-11.3,17.21-9.52,13.28-11.12,8.87c-.53,1.39-2.46,2.21-3.63,1.66-.44-2.24-1.29-5.3-4.37-5.06-1.4.11-3.36,1.5-5.4,2.57-.17-2.38-.14-5.7.57-7.9l11.24-11.74c4.71-4.92,7.64-11.3,11.55-16.9,2.46-3.52,4.08-6.74,5.65-11.36l-13.52-2.18c-3.93-.63-8.01-2.64-9.34-6.34l8.3-6.15,16.91-12.73,17.88-14.66c3.7-3.03,7.92-5.91,10.23-10.25l5.35-10.06,18.33-34.69,13.41-25.88c2.9-2.72,4.83-5.89,5.7-9.76l2.89-4.58,9.13-15.53,4.26-7.57c1.37-2.43,2.11-4.8,1.28-7.63l5.46-5.49,9.6-13.88c1.43-2.06,3.39-3.97,5.7-5.08,3.4-1.64,5.53-4.09,8.05-7.45,2.09,2.73,3.79,4.71,6.99,4.95,2.52.18,3.03-2.2,4.71-3.26.39-.24,1.78.7,1.85,1.18l.88,5.78.92,10.29-.59,9.76-1.53,14.11c1.84,3.51-.69,7.92-.06,15.37.15,1.78,2.98,3.1,4.23,2.13l15.43-12.02,25.75-18.11,14.41-11.23c4.57-3.56,5.08-14.92,5.42-22.27.18-3.83,1.51-7.96,2.35-11.76l3.19-14.41c.47-2.13,1.39-3.53,3.07-4.99,2.15-1.87,1.89-10.04,4.7-17.57l1.68-6.91,3.44-11.22c.21-.7,1.24-2.09,1.88-2.35.74-.29,2.18.62,2.93,1.15l1.38.97c.37.26.82-1.22,1-1.63l1.19-2.71c.25,5.74,3.27,9.01,2.5,14.47l-4.92,34.77-.53,7.93-.99,8.91c-.1.93,1.92,2.28,2.84,2.2s2.73-.88,3.29-1.64c1.82-2.51,4.03-3.15,6.21-4.82l19-14.6,21.66-16.02c1.78-1.32,4.82-1.61,7-1.99,2.41-.42,3.78-1.64,5.46-3.26s4.1-2.69,6.2-4.01l13.9-8.73c2.49-1.56,5.3-1.12,7.6-3.57,2.86-3.06,7.22-4.01,7.18-3.24l-.1,1.99c-.16,3.43,8.92,1.24,6.53,3.52-2.75,2.62-3.86,5.27-5.25,8.76-.78,1.96-3.64,3.83-5.38,5.18l-11.56,9-6.1,4.79-7.01,4.95-23.08,18.55-6.81,6.23-12.95,9.95-21.2,16.38-9.49,7.77c-1.65,1.35-2.26,4.14-2.74,6.37l-6.93,31.82-3.09,12.78c-1.36,1.62-2.83,3.58-3.47,5.67l-6.4,21.02c-1.46,4.79-3.29,9.94-2.66,14.8.69,5.31.28,10.41-1.34,15.53l-3.02,14.2-2,11.07-5.16,24.4c-2.15,10.19-3.94,19.82-3.78,30.27.03,1.84-2.49,5.18-4.24,4.41-3.38-1.78-6.36-4.86-10.18-5.59s-7.35-3.42-6.61-7.87l2.63-15.71c.57-3.39,1.06-6.38,1.54-9.93l3.24-23.63,3.51-15.34,1.97-5.04,1.79-5.88.64-8.49c1.74-5.98,2.84-11.7,2.54-17.9,1.37-3.35,2.34-6.72,2.87-10.33-.3-2.73.81-5.2,2.53-7.09l4.93-15.05c1.08-3.3,1.63-6.21,1.77-9.76l2.2-5.79c.44-1.16.16-3.1-.6-3.87-.7-.72-3.1-.85-4.16-.11l-28.15,19.66-15.76,9.85c-2.91,1.82-4.65,3.23-6.48,6.39-1.18,2.03-4.48,4.06-4.79,6.95l-3.37,31.32c-.64,5.92.05,11.87-1.27,17.71-1.37,6.08-1,12.12-1.7,18.3l-4.58,40.38-2.86,19.84c-2.41,1.64-6.05-.41-12.35.38ZM493.01,520.92l9.17-7.69c9.42-7.9,12.56-6.36,12.68-24.3l.06-9.41-1.54-8.63c-.3-1.7-.96-4.77-2.46-5.19-2.47-.69-2.74,1.87-3.49,3.23l-20.31,36.66-7.97,14.86-4.67,9.18c-.55,1.07-.46,2.65.18,3.28.79.79,3.01.76,3.77,0,4.52-4.58,9.5-7.74,14.58-12Z"/>
  <path class="st0" d="M831.12,564.82l1.78.95c.48.26-.28,1.83-.81,2.2-1.88,1.31-3.94,3.63-5.5,5.77-2.06,2.82-5.19,4.66-8.13,6.7-.76,2.9-2.43,5.16-5.26,6.11l-19.28,10.44c-8.13,4.4-16.16,8.01-24.96,10.91-3.58,1.18-6.16,4.04-8.8,6.58-12.54,12.05-27.07,9.93-33.41,24.84-.82.61-2.9.12-3.72-.5l-8.57-6.46,1.2-5.49-4.81-7.3c-.37-.57-1.16-1.5-1.05-2.03.61-2.84,7.69-4.92,9.57-8.32l5.12-9.3c4.58-8.32,11.18-16.72,3.07-20.94-5.1-2.66-8.48-6.83-11.1-11.79l-1.87-3.56,4.07-3.71,15.74-8.26,9.99-5.49c1.6-8.24,4.41-15.48,7.47-23.16l5.86-19.28-4.16-3.21-9.97-7.11,11.44-6.1,11.49-6.28,3.62-3.68c5.1-.34,9.7-1.11,14.22-3.48l27.99-14.72,23.61-13.98,9.14-5.16c5.46-3.08,11.17-5.7,17.51-6.22,1.02-.08,3.19.43,3.89-.19,2.12-1.85,4.33-1.93,6.92-2.56l8.81-2.16,8.91-1.37c.15,2.59,1.68,4.11,5,5.04l-6.25,8.81-15.82,7.08-13.83,7.27-13.22,6.8-54.2,28.31-9.19,4.16-5.14,3.25c-2.22,1.41-3.39,3.31-3.89,5.92-1.66,8.69-4.12,16.62-7.87,24.66-.4.86-.31,2.56.1,3.26s2.52,1.1,3.41.8c9.3-3.01,18.27-6.2,26.67-11.07,1.49-.86,2.73-2.42,4.5-2.94,4.57-1.35,9.18-2.69,13.28-4.99,3.54-1.98,6.82-3.43,10.82-4.59,8.13-2.36,16.04-4.92,24.64-5.25l8.17.67.44,5.27c.22,2.59-.4,4.23-2.84,5.44-1.44.72-2.7,3.25-4,4.34-4.36,3.64-9.51,5.8-14.6,8.25-3.09,3.18-6.58,5.8-10.61,7.63l-5.5-.51-7.55,2.96c-1.38.54-3.09,1.44-4.14,2.61-4,4.42-8.76,7.52-14.44,9.49-6.75,2.34-12.51,5.67-18.65,9.25-5.08,2.96-11.41,3.17-16.34,6.72-3.13,2.25-4.85,6.86-6.42,10.41l-5.45,12.33c-1.02,2.3-.79,4.79,1.58,6.13l3.37-1.16,16.83-8.17,12.34-5.45,23-10.68c5.65-2.62,11.05-3.15,17.22-3.44,2.59-.12,5.21-3.04,8.56-1.26Z"/>
  <path class="st0" d="M659.83,475.1c.48,1.3.24,3.68-.1,5.29l-2.35,11.33-1.81,13.06-3.9,21.93-4.54,24.5c-.72,3.86-1.01,7.27-1.29,11.25l-.98,13.84c-.12,1.62-.08,2.81-.05,4.44l.26,16.46.31,8.58,3.22,15.09c.36,1.69,2.36,3.64,3.73,5.21,3.69-2.21,5.8-5.55,7.59-9.23l5.97-12.31,4.73-9.4,4.78-11.21,6.24-14.96c3.46-8.29,7.24-16.3,9.62-24.98,1.04-3.8,2.62-6.3,4.84-9.63,3.33-4.98,2.9-16.91,8.71-24.85-.08-2.77.71-5.28,2.3-7.37,2.68-4.24,3.89-8.94,4.33-13.94.29-3.31,1.57-6.01,3.06-8.87l4.33-8.3,5.06-10.33,4.65-11.96s9.77-17.43,10.83-19.83c.93-2.1,1.91-5,3.07-6.47,1.44-1.81,2.81-2.94,3.72-4.96l4.45-9.91,5.37.5c.79,4.12.53,7.78-.61,11.76l-3.06,10.66-4,13.19-9.98,27.69-7.55,15.08-3.04,8.97-6.36,19.36-7.65,19.69-7.02,28.03c1.07,2.1.56,4.01-1.56,5.05l-6.18,16.25c-3.97,10.42-9.34,20.15-14.93,29.82l-3.6,6.23c-3.28,5.68-8.79,9.8-13.95,13.88-5.34,4.22-12.11,6.57-18.72,4.37-3.14-1.04-6.12-2.01-9.42-2.47-3.86-.54-6.97-2.51-9.01-5.86-3.43-5.63-5.42-12.05-5.54-18.85l1.42-4.69.63-18.68,2.15-25.33,1.52-15.14,1.91-25.15c.22-2.91,1.1-6.42,1.94-9.18l1.78-5.8,1.41-5.49,1.9-7.01,4.8-15.13c1.26-3.96,5.57-4.54,10.28-4.39l6.29.2Z"/>
</svg>