<?xml version="1.0" encoding="UTF-8"?>
<svg id="Camada_1" xmlns="http://www.w3.org/2000/svg" version="1.1" viewBox="0 0 1000 1000">
  <!-- Generator: Adobe Illustrator 30.4.0, SVG Export Plug-In . SVG Version: 2.1.4 Build 226)  -->
  <defs>
    <style>
      .st0 {
        fill: #fff;
      }
    </style>
  </defs>
  <path class="st0" d="M316.14,797.63c-12.27-3.66-20.15-11.54-27.92-21.24-7.69-9.6-14.33-19.55-20.36-30.29-3.88-6.91-7.38-13.68-9.63-21.26-1.09-3.68-2.6-7.11-2.12-11.35,2.85,3.75,4.26,7.83,6.6,11.61l8.94,14.43c3.2,5.17,7.3,9.47,11.45,13.99l-11.28-18.53c-6.28-10.31-9.76-21.52-10.31-33.64l-.42-9.28.63-35.3-.02-142.1-.52-35.68-.43-5.93c-.03-.42-.19-1.12-.39-1.39-.94-1.23-10.06,2.95-20.15-3.38-.43-.27-1.02-1.05-1.14-1.48-.13-.51.41-1.71.88-1.98l5.81-3.35c5.58-3.21,10.19-7.27,14.67-11.86,11.06-11.34,15.76-22.83,20-37.84.56-1.97.92-3.83,2.21-5.62,2.64,7.14,4.25,13.79,6.04,20.82l5.07,19.94c2.35,9.25,10.95,14.79,20.1,15.05l5.91.17c-2.6,2.94-5.07,4.76-7.92,6.82-6.9,5-13.97,9-22.1,4.05-3.27-1.99-6.34-4.11-9.47-6.35-.93-.67-1.89-1.26-3.02-1.36,3.27,4.98,6.56,9.29,10.69,13.09,3.57,3.29,7.94,5.46,12.25,7.52,1.87.89,2.64,1.95,2.62,4.18l-.4,38.44v120.74s.95,52.25.95,52.25c.12,6.32,2.18,12.25,5.41,17.46,3.86,6.23,10.58,9.38,17.88,8.46,8.68-1.09,15.83-6.54,19.86-14.23.59-1.12,1.34-2.12,2.17-3.05l3.39,3.81c2.26-1.31,2.9-5.46,2.73-8.42-.58-10.4.28-20.46.29-30.96l.05-172.17-.57-24.08-.66-6.97-5.14.33c-5.51.75-10.69-.62-15.36-3.48l-.75-1.39c-.21-.38.38-1.46.8-1.72l4.08-2.56c6.04-3.14,10.94-7.23,15.67-12.08s9.11-10.24,12.34-16.58c4.08-8.03,6.69-16.44,8.82-25.19.31-1.27.57-2.23,1.55-3.38l5.45,20.11,5.05,20.29c2.21,8.87,9.58,15.78,18.61,16.1l8.18.29c-4.7,4.44-9.36,8.1-14.69,11.01-10.81,5.89-17.93-1.56-27.15-7.46.38,1.97,1.5,3.09,2.47,4.54,4.36,6.51,10.28,11.31,17.44,14.62l4.71,2.75-.03,192.14.6,18.03c.24,7.15,1.49,14.15,4.98,20.45,2.71,4.9,7.4,8.48,13.04,9.17,9.81,1.2,19.08-4.52,22.94-13.47,1.87-4.32,2.73-8.66,2.98-13.43.89-17.19,1.07-34.22,1.07-51.59l-.02-132.57-.19-12.89c-.09-6.33-.46-12.43-1.16-18.75-.87-7.86-3.34-15.29-8.15-21.59-2.48-3.25-5.8-4.27-7.18-6.97.8-1.17,1.72-2.15,2.86-2.81,6.29-3.69,11.78-8.04,16.82-13.29,5.96-6.2,10.46-13.01,14.02-20.86l2.8-6.18c.06-.14.53-.6.63-.51l.64.6,6.12,14.48c3.97,6,8.39,11.52,13.97,16.13,3.69,3.05,8.31,4.52,13.11,4.7l7.4.27c.13,0,.75.45.74.58-.01.19-.1.75-.23.93l-3.25,4.22c-6.68,8.69-13.7,13.83-13.72,26.37l-.16,105.59.13,153.59-.57,19.68c-.48.1-.6.15-.66.04l-.41-.72-3.25-13.29c-1.71-7-4.31-13.5-8.21-19.45-3.68-5.61-9.64-8.62-16.32-7.14-4.01.89-7.83,2.48-11.07,5.17-5.86,4.86-11.47,9.81-16.34,15.69-3.59,4.33-5.72,9.25-8.59,14.08-6.96,13.22-11.72,28.53-10.87,43.96-8.79-2.72-16.63-7.46-22.85-14.35-12.2-13.5-21.96-28.75-30.21-44.94-2.31-4.53-3.39-8.82-4.52-14.16-5.85,4.95-11.72,9.79-16.34,15.89-3.97,5.24-6.96,10.87-9.82,16.78-4.89,10.07-8.16,20.57-9.45,31.68l-.14,8.27c0,.22-.02.83-.17.78l-.79-.24ZM379.03,756.92l-13.56-20.9-7.67-14.54c-.46-.45-2.08.11-2.39.84-.25.59.09,1.37.51,2.27,3.94,8.45,8.77,16.09,14.86,23.13l4.8,5.55c.91,1.43,1.9,3.02,3.45,3.67Z"/>
  <path class="st0" d="M767.52,508.98c2.07.09,3.81.09,6,.9l-8.02,2.35c-3.91,1.14-15.4,7.68-15.39,12.74l.06,97.72.34,20.31c.09,5.46,3.87,11.3,9.67,11.81,10.62.94,20.71-4.77,26.57-13.57,1.22-1.83,2.35-3.16,4.25-4.64.65,2.49.13,4.27-.47,6.38-1.53,5.4-4.44,9.9-7.9,14.29-5.47,6.92-11.52,12.9-18.37,18.44-3.13,2.52-5.98,5.07-8.58,8.05-2.95,3.38-4.14,7.13-3.57,12l-12.69-4.43c-6.19-2.76-11.59-6.27-16.6-10.75-6.73-6.03-13.12-12.53-14.77-21.6l3.66-1.69c3.94-1.82,7.59-3.7,10.7-6.77l6.56-6.5c1.12-1.11,2.02-2.37,2.39-4.08-6.8,6.58-14.29,11.64-23.08,15.08-8.09,3.16-15.59,7.13-22.43,12.37-4.87,3.73-8.66,7.89-12.16,12.86-2.95,4.18-4.46,8.56-4.26,13.93-14.18-3.7-29.5-9.79-40.59-18.65l-9.71-7.76-4.72-4.38c-4.35-4.04-5.9-10.24-8.35-9.95-2.61.3-4.89,1.11-7.14,2.31l-7.55,4.03c-14.88,9.3-27.73,21.31-38.12,35.42-2.37,3.21-3.57,6.38-3.6,10.51l-11.36-3.81c-13.74-4.61-29.94-21.11-33.2-35.54,1.91-4.64,3.18-9.32,3.28-14.42l.29-14.94.03-49.88-.3-52.99c-.03-4.67-1.39-8.85-2.63-13.19l-1.85-6.45c-.59-2.04,1.04-3.73,2.94-4.25l11.49-3.19c13.68-3.8,23.25-13.18,31.34-24.51.49-.69,1.03-1.09,2.03-1.71.51,1.76.7,2.72.7,4.59l.04,151.13,1,12.6c.44,5.6,2.65,10.57,5.95,15.03.64.86.33,2.09-.3,2.89-4.65,5.93-9.87,13.74-10.92,20.78l8.37-11.88c6.23-8.84,22.66-19.07,33.15-22.62l15.43-5.22c4.91-1.66,6.17-4.12,6.21-9.3l.43-54.07v-46.72s-.4-16.15-.4-16.15l-4.25-.38c-6.43-.12-12.58-.66-18.68-3.09,1.72-1.51,3.25-1.86,5-2.41,5.52-1.71,10.94-3.37,16.03-6.17,4.71-2.59,8.64-6.01,12.72-9.44,4.81-4.04,8.04-8.67,11.29-14.25.91,1.62,1.22,2.65,1.63,4.09,3.98,13.93,12.57,25.96,27.93,26.24l9.08.17c.21,0,.71.05.66.17l-.26.58-12.75,4.34c-10.47,3.41-20.39,1.26-30.18-3.45l-.74.16,3.13,2.61c4.68,3.12,9.73,5.03,15.08,6.69l6.96,2.66v100.76c-.01,4.08.36,7.78,1.22,11.63,1.28,5.74,5.53,10.12,11.04,11.9,4.98,1.61,9.92,1.59,15.05.72s9.71-2.15,13.99-4.59c3.97-2.26,6.21-5.73,6.49-10.26l.62-10.22.35-53.9-.02-29.32-.72-14.5c-.24-4.78-2.46-8.81-6.05-11.81l-8.2-6.87c-.3-.25-.82-1.08-.77-1.46.06-.46.84-1.28,1.29-1.44l8.87-3.03c9.44-3.22,19.27-11.89,26.52-19.07,2.44.37,2.43,5.04,6.61,8.64,7.84,6.74,17.39,10.51,27.75,10.98l9.47.42Z"/>
  <path class="st0" d="M525.13,492.75c-1.39,1.97-7.86-3.51-10.7-6.29l-5.83-5.7c-3.58-3.5-3.53-8.39-1.57-13.16,3.08-7.49,7.25-14.23,12.21-20.61,4.08-5.25,9.22-12.36,10.35-18.55.84-4.64.19-9.27-1.23-13.73l-4.03-12.67c3.09,1.28,4.17,3.58,6.05,5.54l12.19,18.65c6.35,9.72,6.77,19.27,5.09,30.51-.94,6.32-3.19,12.01-7.35,16.86l-9.52,11.11-5.67,8.04Z"/>
  <path d="M379.03,756.92c-1.55-.65-2.54-2.24-3.45-3.67l-4.8-5.55c-6.09-7.04-10.92-14.68-14.86-23.13-.42-.9-.76-1.68-.51-2.27.31-.72,1.93-1.29,2.39-.84l7.67,14.54,13.56,20.9Z"/>
</svg>