<?xml version="1.0" encoding="UTF-8"?>
<svg id="Camada_1" xmlns="http://www.w3.org/2000/svg" version="1.1" viewBox="0 0 1000 1000">
  <!-- Generator: Adobe Illustrator 30.4.0, SVG Export Plug-In . SVG Version: 2.1.4 Build 226)  -->
  <defs>
    <style>
      .st0 {
        fill: #fff;
      }

      .st1 {
        fill: #211915;
        stroke: #211915;
        stroke-miterlimit: 10;
      }
    </style>
  </defs>
  <rect class="st1" x="-110.64" y="-95.6" width="1303.91" height="1185.23"/>
  <polygon class="st0" points="301.93 605.61 274.34 581.21 237.49 548.02 237.53 416.8 184.24 416.76 184.38 352.37 362.74 352.37 362.84 416.77 301.93 416.81 301.93 605.61"/>
  <path class="st0" d="M667.8,456.31"/>
  <polygon class="st0" points="727.11 383.76 727.65 352.3 725.67 352.37 723.3 379.16 727.11 383.76"/>
  <path class="st0" d="M664.76,482.2c.12-.05.26-.53.41-1.3l-.41,1.3Z"/>
  <path class="st0" d="M373.04,406.47l.03,138.27,39.8,48.11h113.93s4.48-58.92,4.22-64.36h-93.07s-.02-27.94-.02-27.94l62.52.05,24.47-.09-.03-64.3h-84.18s.06-19.43.06-19.43h47.69s53.32-64.41,53.32-64.41h-168.78s.03,54.1.03,54.1Z"/>
  <polygon class="st0" points="541.79 352.37 541.85 352.37 541.85 352.3 541.79 352.37"/>
  <polygon class="st0" points="727.11 383.76 726.07 377.71 726.18 358.52 726.5 352.37 541.85 352.37 541.97 416.77 602.72 416.79 602.64 550.98 647.23 591.06 663.58 605.45 663.89 558.22 664.68 534.86 664.76 482.2 664.76 416.88 667.97 416.79 727.16 416.81 727.11 383.76"/>
  <path class="st0" d="M811.25,352.37"/>
  <path class="st0" d="M852.74,353.9c-69.09,0-125.09,56.01-125.09,125.09s56.01,125.09,125.09,125.09,125.09-56.01,125.09-125.09-56.01-125.09-125.09-125.09ZM852.74,533.87c-30.31,0-54.88-24.57-54.88-54.88s24.57-54.88,54.88-54.88,54.88,24.57,54.88,54.88-24.57,54.88-54.88,54.88Z"/>
</svg>